<?xml version="1.0" standalone="no"?>
<!DOCTYPE svg PUBLIC "-//W3C//DTD SVG 20010904//EN"
 "http://www.w3.org/TR/2001/REC-SVG-20010904/DTD/svg10.dtd">
<svg version="1.0" xmlns="http://www.w3.org/2000/svg"
 width="1256.000000pt" height="1250.000000pt" viewBox="0 0 1256.000000 1250.000000"
 preserveAspectRatio="xMidYMid meet">

<g transform="translate(0.000000,1250.000000) scale(0.100000,-0.100000)"
fill="#000000" stroke="none">
<path d="M5730 9685 c-213 -24 -345 -51 -568 -116 -123 -37 -335 -120 -356
-139 -5 -5 14 -33 45 -67 391 -422 544 -590 644 -704 66 -74 158 -179 205
-232 l85 -96 115 -1 c437 -2 808 -216 960 -554 103 -229 75 -440 -80 -597 -73
-73 -191 -140 -282 -158 -29 -6 -100 -19 -158 -30 -247 -47 -420 -195 -475
-406 -20 -77 -22 -400 -2 -407 6 -3 58 -3 113 0 l101 4 7 52 c3 28 6 105 6
172 0 109 2 125 26 172 32 65 110 136 172 156 26 9 101 24 167 35 146 23 256
64 356 132 98 67 150 119 209 206 135 201 160 429 75 678 -19 55 -32 102 -29
104 3 3 66 -57 142 -132 75 -75 142 -137 147 -137 6 0 98 84 205 186 107 103
267 255 355 337 208 195 355 338 355 345 0 13 -145 196 -216 272 -186 199
-338 330 -546 470 -152 102 -399 232 -548 289 -380 145 -849 208 -1230 166z"/>
<path d="M4440 9222 c-199 -132 -476 -385 -630 -576 -411 -509 -622 -1190
-571 -1840 26 -322 90 -573 220 -860 35 -78 121 -226 131 -226 4 0 21 33 39
74 46 105 124 218 216 315 211 221 470 333 772 335 73 1 132 3 130 6 -48 83
-116 282 -138 400 -16 85 -16 276 0 370 71 424 339 781 726 966 44 22 82 40
84 41 4 2 -105 127 -198 228 -25 28 -93 102 -151 165 -276 302 -582 620 -596
619 -5 0 -20 -8 -34 -17z"/>
<path d="M4482 6249 c-273 -40 -533 -233 -666 -497 -61 -120 -114 -291 -281
-897 -26 -93 -63 -226 -82 -295 -86 -311 -152 -574 -163 -656 -25 -186 30
-362 156 -494 154 -162 366 -195 568 -87 85 45 152 111 354 346 209 244 384
441 441 495 l41 40 22 -21 c35 -32 126 -79 198 -103 54 -19 80 -21 155 -17 50
3 113 12 140 21 67 20 160 78 237 146 l62 55 303 3 302 4 73 -69 c110 -105
186 -143 320 -164 128 -20 297 28 391 111 l38 33 67 -69 c113 -116 183 -193
307 -339 336 -394 380 -438 494 -492 223 -107 501 -4 623 232 57 110 72 174
72 300 -1 127 -9 164 -219 908 -242 861 -262 923 -336 1049 -168 285 -483 458
-832 458 -206 0 -408 -77 -554 -211 l-43 -39 -692 0 -693 0 -80 60 c-101 76
-168 112 -281 149 -144 48 -292 61 -442 40z m2938 -421 c59 -31 82 -65 88
-131 7 -86 -37 -152 -120 -176 -103 -31 -210 49 -210 158 0 132 124 209 242
149z m-2742 -14 c41 -11 52 -51 52 -194 l0 -131 147 2 c139 1 148 0 164 -20
38 -47 36 -202 -2 -237 -19 -17 -36 -19 -165 -16 l-144 2 0 -139 c0 -77 -4
-151 -9 -164 -14 -36 -59 -50 -150 -46 -116 6 -115 4 -119 195 l-3 156 -129
-7 c-164 -9 -185 -5 -201 42 -14 44 -6 208 12 229 9 11 44 14 165 14 l154 0 0
142 c0 179 -1 178 119 178 47 0 96 -3 109 -6z m2400 -321 c73 -34 103 -133 63
-211 -41 -81 -151 -116 -231 -73 -92 48 -109 204 -31 275 41 37 129 41 199 9z
m702 2 c56 -29 96 -105 85 -164 -15 -86 -82 -141 -169 -141 -101 0 -166 68
-166 174 0 50 4 60 33 92 55 59 144 75 217 39z m-1976 -25 c26 -9 56 -56 56
-85 0 -36 -32 -84 -62 -94 -38 -13 -258 -14 -291 -2 -16 6 -29 23 -37 46 -13
39 -5 108 13 124 23 18 278 28 321 11z m626 1 c15 -4 32 -21 43 -43 15 -30 16
-44 7 -76 -18 -68 -23 -69 -243 -64 l-107 2 -20 33 c-11 17 -20 45 -20 60 0
32 24 83 42 90 19 8 269 6 298 -2z m990 -296 c116 -59 114 -242 -3 -295 -55
-26 -93 -25 -147 3 -79 40 -110 111 -84 198 29 97 139 141 234 94z m-2041
-330 c113 -62 168 -164 159 -294 -12 -167 -143 -285 -318 -285 -111 0 -222 65
-268 157 -67 135 -41 283 69 381 69 63 110 77 214 73 77 -2 98 -7 144 -32z
m1477 3 c57 -30 112 -86 146 -150 18 -35 23 -59 23 -128 0 -73 -4 -93 -29
-143 -92 -188 -351 -222 -507 -67 -150 149 -104 395 92 494 49 25 62 27 139
24 67 -4 96 -10 136 -30z"/>
</g>
</svg>
