<svg xmlns:dc="http://purl.org/dc/elements/1.1/" xmlns:cc="http://creativecommons.org/ns#" xmlns:rdf="http://www.w3.org/1999/02/22-rdf-syntax-ns#" xmlns:svg="http://www.w3.org/2000/svg" xmlns="http://www.w3.org/2000/svg" xmlns:sodipodi="http://sodipodi.sourceforge.net/DTD/sodipodi-0.dtd" xmlns:inkscape="http://www.inkscape.org/namespaces/inkscape" version="1.1" id="svg2" xml:space="preserve" viewBox="316.86 147.34 329.28 160.6" sodipodi:docname="fpx.ai"><metadata id="metadata8"><rdf:rdf><cc:work rdf:about=""><dc:format>image/svg+xml</dc:format><dc:type rdf:resource="http://purl.org/dc/dcmitype/StillImage"></dc:type></cc:work></rdf:rdf></metadata><defs id="defs6"><clipPath clipPathUnits="userSpaceOnUse" id="clipPath18"><path d="M 0,340 H 720 V 0 H 0 Z" id="path16"></path></clipPath></defs><sodipodi:namedview pagecolor="#ffffff" bordercolor="#666666" borderopacity="1" objecttolerance="10" gridtolerance="10" guidetolerance="10" inkscape:pageopacity="0" inkscape:pageshadow="2" inkscape:window-width="640" inkscape:window-height="480" id="namedview4"></sodipodi:namedview><g id="g10" inkscape:groupmode="layer" inkscape:label="fpx" transform="matrix(1.3333333,0,0,-1.3333333,0,453.33333)"><g id="g12"><g id="g14" clip-path="url(#clipPath18)"><g id="g20" transform="translate(242.312,121.1494)"><path d="m 0,0 c 0,-0.677 0.105,-1.299 0.316,-1.862 0.21,-0.567 0.514,-1.054 0.906,-1.468 0.394,-0.413 0.866,-0.737 1.417,-0.969 0.55,-0.228 1.164,-0.346 1.842,-0.346 0.681,0 1.294,0.118 1.844,0.346 0.55,0.232 1.024,0.556 1.415,0.969 0.395,0.414 0.698,0.901 0.908,1.468 0.21,0.563 0.316,1.185 0.316,1.862 0,0.665 -0.106,1.287 -0.316,1.854 C 8.438,2.426 8.135,2.917 7.74,3.332 7.349,3.749 6.875,4.068 6.325,4.301 5.775,4.529 5.162,4.648 4.481,4.648 3.803,4.648 3.189,4.529 2.639,4.301 2.088,4.068 1.616,3.749 1.222,3.332 0.83,2.917 0.526,2.426 0.316,1.854 0.105,1.287 0,0.665 0,0 m -3.298,0 c 0,1.157 0.19,2.201 0.578,3.14 0.387,0.937 0.927,1.737 1.618,2.393 0.696,0.658 1.516,1.163 2.467,1.52 0.949,0.35 1.989,0.529 3.116,0.529 1.129,0 2.167,-0.179 3.119,-0.529 0.948,-0.357 1.772,-0.862 2.466,-1.52 0.691,-0.656 1.23,-1.456 1.619,-2.393 0.385,-0.939 0.58,-1.983 0.58,-3.14 0,-1.155 -0.195,-2.197 -0.58,-3.136 C 11.296,-4.071 10.757,-4.87 10.066,-5.529 9.372,-6.187 8.548,-6.694 7.6,-7.047 6.648,-7.401 5.61,-7.575 4.481,-7.575 c -1.127,0 -2.167,0.174 -3.116,0.528 -0.951,0.353 -1.771,0.86 -2.467,1.518 -0.691,0.659 -1.231,1.458 -1.618,2.393 -0.388,0.939 -0.578,1.981 -0.578,3.136" style="fill:#242b57;fill-opacity:1;fill-rule:nonzero;stroke:none" id="path22"></path></g><g id="g24" transform="translate(256.3491,123.8428)"><path d="m 0,0 h 2.934 v -1.346 h 0.039 c 0.096,0.191 0.232,0.381 0.41,0.572 0.175,0.187 0.385,0.359 0.631,0.506 0.244,0.149 0.521,0.272 0.833,0.37 0.315,0.092 0.653,0.141 1.019,0.141 0.774,0 1.4,-0.121 1.874,-0.358 0.477,-0.238 0.848,-0.568 1.113,-0.988 0.264,-0.421 0.444,-0.916 0.539,-1.488 0.095,-0.571 0.141,-1.189 0.141,-1.851 V -9.904 H 6.477 v 4.849 c 0,0.284 -0.011,0.582 -0.028,0.886 -0.022,0.304 -0.082,0.588 -0.183,0.846 -0.103,0.259 -0.261,0.469 -0.47,0.63 -0.211,0.166 -0.513,0.247 -0.907,0.247 -0.395,0 -0.714,-0.073 -0.958,-0.215 C 3.687,-2.803 3.5,-2.993 3.373,-3.23 3.242,-3.47 3.158,-3.737 3.116,-4.034 3.077,-4.335 3.056,-4.647 3.056,-4.974 v -4.93 H 0 Z" style="fill:#242b57;fill-opacity:1;fill-rule:nonzero;stroke:none" id="path26"></path></g><path d="m 268.083,129.341 h 3.056 v -15.4 h -3.056 z" style="fill:#242b57;fill-opacity:1;fill-rule:nonzero;stroke:none" id="path28"></path><path d="m 273.382,123.843 h 3.054 v -9.9 h -3.054 z m -0.248,3.115 c 0,0.486 0.174,0.905 0.523,1.252 0.344,0.347 0.763,0.521 1.252,0.521 0.488,0 0.905,-0.174 1.253,-0.521 0.345,-0.347 0.519,-0.766 0.519,-1.252 0,-0.489 -0.174,-0.906 -0.519,-1.253 -0.348,-0.348 -0.765,-0.52 -1.253,-0.52 -0.489,0 -0.908,0.172 -1.252,0.52 -0.349,0.347 -0.523,0.764 -0.523,1.253" style="fill:#242b57;fill-opacity:1;fill-rule:nonzero;stroke:none" id="path30"></path><g id="g32" transform="translate(278.6357,123.8428)"><path d="m 0,0 h 2.934 v -1.346 h 0.042 c 0.095,0.191 0.229,0.381 0.409,0.572 0.176,0.187 0.383,0.359 0.631,0.506 0.244,0.149 0.521,0.272 0.834,0.37 0.312,0.092 0.652,0.141 1.019,0.141 0.773,0 1.4,-0.121 1.874,-0.358 0.475,-0.238 0.845,-0.568 1.11,-0.988 0.266,-0.421 0.446,-0.916 0.539,-1.488 0.095,-0.571 0.143,-1.189 0.143,-1.851 V -9.904 H 6.479 v 4.849 c 0,0.284 -0.01,0.582 -0.03,0.886 -0.02,0.304 -0.082,0.588 -0.182,0.846 -0.102,0.259 -0.26,0.469 -0.47,0.63 -0.211,0.166 -0.514,0.247 -0.906,0.247 -0.395,0 -0.713,-0.073 -0.96,-0.215 C 3.688,-2.803 3.501,-2.993 3.373,-3.23 3.244,-3.47 3.159,-3.737 3.116,-4.034 3.077,-4.335 3.057,-4.647 3.057,-4.974 v -4.93 H 0 Z" style="fill:#242b57;fill-opacity:1;fill-rule:nonzero;stroke:none" id="path34"></path></g><g id="g36" transform="translate(297.1152,120.0117)"><path d="M 0,0 C 0.013,0.514 -0.157,0.957 -0.509,1.322 -0.862,1.688 -1.315,1.873 -1.875,1.873 -2.213,1.873 -2.512,1.82 -2.769,1.71 -3.027,1.6 -3.249,1.46 -3.433,1.291 -3.617,1.121 -3.757,0.927 -3.86,0.7 -3.962,0.479 -4.02,0.244 -4.033,0 Z M 2.587,-4.362 C 2.1,-4.986 1.482,-5.469 0.734,-5.81 c -0.747,-0.338 -1.521,-0.504 -2.322,-0.504 -0.761,0 -1.478,0.118 -2.15,0.363 -0.673,0.245 -1.258,0.595 -1.752,1.05 -0.498,0.455 -0.885,1.001 -1.172,1.64 -0.286,0.641 -0.427,1.353 -0.427,2.139 0,0.788 0.141,1.499 0.427,2.138 0.287,0.638 0.674,1.185 1.172,1.642 0.494,0.453 1.079,0.804 1.752,1.05 0.672,0.243 1.389,0.364 2.15,0.364 0.706,0 1.348,-0.121 1.923,-0.364 C 0.914,3.462 1.402,3.111 1.803,2.658 2.204,2.201 2.511,1.654 2.73,1.016 2.947,0.377 3.056,-0.334 3.056,-1.122 v -0.956 h -7.089 c 0.121,-0.586 0.386,-1.05 0.793,-1.397 0.407,-0.346 0.91,-0.518 1.509,-0.518 0.502,0 0.927,0.111 1.274,0.336 0.344,0.224 0.647,0.512 0.905,0.863 z" style="fill:#242b57;fill-opacity:1;fill-rule:nonzero;stroke:none" id="path38"></path></g><g id="g40" transform="translate(311.6201,116.6299)"><path d="M 0,0 H 2.852 C 3.1,0 3.346,0.026 3.596,0.081 3.847,0.134 4.076,0.229 4.28,0.364 4.481,0.499 4.65,0.677 4.779,0.897 4.909,1.113 4.971,1.376 4.971,1.688 4.971,2.029 4.887,2.305 4.717,2.515 4.549,2.726 4.332,2.887 4.076,2.993 3.819,3.103 3.539,3.179 3.24,3.217 2.941,3.259 2.663,3.281 2.403,3.281 H 0 Z m 0,5.969 h 2.301 c 0.247,0 0.486,0.024 0.724,0.079 0.238,0.055 0.451,0.144 0.642,0.267 0.19,0.123 0.345,0.284 0.458,0.487 0.116,0.205 0.174,0.448 0.174,0.736 0,0.297 -0.064,0.544 -0.192,0.743 C 3.977,8.478 3.81,8.63 3.606,8.738 3.402,8.847 3.173,8.925 2.915,8.973 2.657,9.02 2.403,9.045 2.161,9.045 H 0 Z m -3.179,5.763 h 5.381 c 0.624,0 1.252,-0.042 1.883,-0.13 0.632,-0.089 1.198,-0.265 1.701,-0.53 C 6.288,10.806 6.696,10.436 7.008,9.959 7.32,9.485 7.477,8.854 7.477,8.067 7.477,7.25 7.252,6.575 6.795,6.04 6.341,5.503 5.738,5.119 4.993,4.889 V 4.846 C 5.465,4.778 5.899,4.647 6.284,4.448 6.672,4.254 7.003,4 7.283,3.695 7.561,3.391 7.776,3.034 7.925,2.629 8.077,2.218 8.149,1.784 8.149,1.323 8.149,0.563 7.988,-0.072 7.661,-0.582 7.335,-1.092 6.913,-1.502 6.398,-1.815 5.881,-2.127 5.301,-2.349 4.655,-2.486 4.012,-2.62 3.37,-2.691 2.73,-2.691 h -5.909 z" style="fill:#242b57;fill-opacity:1;fill-rule:nonzero;stroke:none" id="path42"></path></g><g id="g44" transform="translate(326.7153,118.2803)"><path d="m 0,0 c -0.229,0 -0.518,-0.013 -0.865,-0.031 -0.346,-0.02 -0.68,-0.079 -0.995,-0.174 -0.321,-0.096 -0.595,-0.239 -0.815,-0.43 -0.226,-0.19 -0.34,-0.452 -0.34,-0.795 0,-0.364 0.158,-0.635 0.469,-0.812 0.314,-0.179 0.64,-0.268 0.978,-0.268 0.298,0 0.589,0.043 0.866,0.125 0.281,0.082 0.527,0.197 0.745,0.348 0.216,0.145 0.388,0.336 0.518,0.569 0.128,0.229 0.196,0.503 0.196,0.815 L 0.757,0 Z M 0.757,-3.098 H 0.716 c -0.341,-0.531 -0.794,-0.91 -1.357,-1.142 -0.564,-0.232 -1.157,-0.343 -1.781,-0.343 -0.462,0 -0.907,0.062 -1.335,0.19 -0.43,0.128 -0.805,0.326 -1.132,0.582 -0.324,0.258 -0.582,0.578 -0.774,0.958 -0.191,0.379 -0.284,0.822 -0.284,1.326 0,0.566 0.104,1.048 0.315,1.443 0.21,0.396 0.496,0.72 0.856,0.978 0.359,0.258 0.77,0.461 1.23,0.603 0.465,0.142 0.943,0.247 1.437,0.315 0.497,0.068 0.993,0.106 1.49,0.123 0.494,0.012 0.952,0.018 1.376,0.018 0,0.545 -0.196,0.977 -0.583,1.293 -0.388,0.32 -0.845,0.479 -1.375,0.479 -0.502,0 -0.96,-0.106 -1.373,-0.313 C -2.99,3.2 -3.362,2.912 -3.686,2.545 l -1.63,1.672 c 0.57,0.528 1.236,0.926 1.996,1.192 0.761,0.263 1.549,0.395 2.365,0.395 0.897,0 1.632,-0.112 2.21,-0.335 C 1.831,5.244 2.296,4.916 2.64,4.48 2.987,4.047 3.227,3.514 3.363,2.883 3.498,2.252 3.567,1.52 3.567,0.69 v -5.032 h -2.81 z" style="fill:#242b57;fill-opacity:1;fill-rule:nonzero;stroke:none" id="path46"></path></g><g id="g48" transform="translate(332.1968,123.8428)"><path d="m 0,0 h 2.934 v -1.346 h 0.042 c 0.092,0.191 0.229,0.381 0.407,0.572 0.177,0.187 0.386,0.359 0.633,0.506 0.242,0.149 0.522,0.272 0.831,0.37 0.315,0.092 0.653,0.141 1.022,0.141 0.773,0 1.4,-0.121 1.872,-0.358 0.477,-0.238 0.847,-0.568 1.112,-0.988 0.265,-0.421 0.443,-0.916 0.539,-1.488 0.095,-0.571 0.143,-1.189 0.143,-1.851 V -9.904 H 6.48 v 4.849 c 0,0.284 -0.012,0.582 -0.03,0.886 -0.023,0.304 -0.083,0.588 -0.184,0.846 -0.103,0.259 -0.261,0.469 -0.47,0.63 -0.211,0.166 -0.513,0.247 -0.905,0.247 -0.397,0 -0.714,-0.073 -0.96,-0.215 C 3.688,-2.803 3.499,-2.993 3.373,-3.23 3.243,-3.47 3.158,-3.737 3.116,-4.034 3.077,-4.335 3.056,-4.647 3.056,-4.974 v -4.93 H 0 Z" style="fill:#242b57;fill-opacity:1;fill-rule:nonzero;stroke:none" id="path50"></path></g><g id="g52" transform="translate(343.8921,129.3408)"><path d="m 0,0 h 3.055 v -9.411 l 3.383,3.913 h 3.747 l -3.932,-4.464 4.033,-5.44 H 6.438 l -3.342,5.015 H 3.055 v -5.015 H 0 Z" style="fill:#242b57;fill-opacity:1;fill-rule:nonzero;stroke:none" id="path54"></path></g><path d="m 355.26,123.843 h 3.056 v -9.9 h -3.056 z m -0.244,3.115 c 0,0.486 0.174,0.905 0.52,1.252 0.344,0.347 0.762,0.521 1.252,0.521 0.49,0 0.906,-0.174 1.253,-0.521 0.344,-0.347 0.518,-0.766 0.518,-1.252 0,-0.489 -0.174,-0.906 -0.518,-1.253 -0.347,-0.348 -0.763,-0.52 -1.253,-0.52 -0.49,0 -0.908,0.172 -1.252,0.52 -0.346,0.347 -0.52,0.764 -0.52,1.253" style="fill:#242b57;fill-opacity:1;fill-rule:nonzero;stroke:none" id="path56"></path><g id="g58" transform="translate(360.5151,123.8428)"><path d="m 0,0 h 2.934 v -1.346 h 0.041 c 0.096,0.191 0.231,0.381 0.41,0.572 0.173,0.187 0.383,0.359 0.631,0.506 0.244,0.149 0.522,0.272 0.833,0.37 0.313,0.092 0.653,0.141 1.02,0.141 0.773,0 1.399,-0.121 1.872,-0.358 0.476,-0.238 0.846,-0.568 1.113,-0.988 0.264,-0.421 0.442,-0.916 0.538,-1.488 0.095,-0.571 0.143,-1.189 0.143,-1.851 V -9.904 H 6.479 v 4.849 c 0,0.284 -0.011,0.582 -0.029,0.886 -0.021,0.304 -0.083,0.588 -0.183,0.846 -0.104,0.259 -0.263,0.469 -0.471,0.63 -0.209,0.166 -0.513,0.247 -0.906,0.247 -0.395,0 -0.713,-0.073 -0.959,-0.215 C 3.686,-2.803 3.502,-2.993 3.374,-3.23 3.245,-3.47 3.158,-3.737 3.116,-4.034 3.077,-4.335 3.056,-4.647 3.056,-4.974 v -4.93 H 0 Z" style="fill:#242b57;fill-opacity:1;fill-rule:nonzero;stroke:none" id="path60"></path></g><g id="g62" transform="translate(374.9004,118.9521)"><path d="m 0,0 c 0,-0.324 0.06,-0.636 0.183,-0.93 0.122,-0.288 0.295,-0.549 0.517,-0.772 0.226,-0.227 0.484,-0.404 0.776,-0.539 0.29,-0.136 0.614,-0.204 0.967,-0.204 0.338,0 0.659,0.068 0.956,0.204 0.299,0.135 0.56,0.312 0.786,0.539 0.223,0.223 0.397,0.484 0.521,0.772 0.122,0.294 0.182,0.606 0.182,0.93 0,0.323 -0.06,0.635 -0.182,0.927 C 4.582,1.216 4.408,1.477 4.185,1.698 3.959,1.926 3.698,2.103 3.399,2.24 3.102,2.376 2.781,2.444 2.443,2.444 2.09,2.444 1.766,2.376 1.476,2.24 1.184,2.103 0.926,1.926 0.7,1.698 0.478,1.477 0.305,1.216 0.183,0.927 0.06,0.635 0,0.323 0,0 m 7.699,-4.177 c 0,-1.874 -0.47,-3.299 -1.418,-4.269 -0.941,-0.97 -2.378,-1.457 -4.305,-1.457 -0.885,0 -1.754,0.102 -2.61,0.297 -0.856,0.195 -1.643,0.58 -2.362,1.149 l 1.688,2.527 c 0.476,-0.392 0.977,-0.705 1.5,-0.936 0.522,-0.231 1.095,-0.347 1.723,-0.347 0.934,0 1.625,0.227 2.067,0.684 0.44,0.452 0.664,1.035 0.664,1.741 v 0.954 H 4.603 C 4.248,-4.308 3.813,-4.643 3.288,-4.841 2.764,-5.038 2.273,-5.135 1.811,-5.135 c -0.733,0 -1.401,0.125 -1.996,0.377 -0.597,0.251 -1.112,0.604 -1.538,1.06 -0.427,0.454 -0.759,0.993 -0.989,1.619 -0.229,0.624 -0.345,1.309 -0.345,2.059 0,0.653 0.104,1.29 0.314,1.916 0.212,0.624 0.512,1.172 0.897,1.649 0.386,0.474 0.859,0.859 1.416,1.15 0.559,0.29 1.19,0.437 1.896,0.437 0.433,0 0.833,-0.047 1.192,-0.142 C 3.019,4.895 3.338,4.771 3.624,4.623 3.91,4.476 4.155,4.307 4.359,4.124 4.561,3.942 4.725,3.76 4.847,3.582 h 0.041 v 1.307 h 2.811 z" style="fill:#242b57;fill-opacity:1;fill-rule:nonzero;stroke:none" id="path64"></path></g><g id="g66" transform="translate(394.6396,122.25)"><path d="M 0,0 H 2.119 C 2.403,0 2.679,0.03 2.943,0.085 3.208,0.136 3.445,0.229 3.657,0.36 3.866,0.488 4.038,0.661 4.167,0.888 4.297,1.11 4.359,1.394 4.359,1.732 4.359,2.1 4.276,2.394 4.107,2.62 3.936,2.845 3.719,3.014 3.454,3.14 3.19,3.261 2.894,3.34 2.569,3.374 2.24,3.406 1.93,3.425 1.63,3.425 H 0 Z m -3.179,6.112 h 5.36 C 2.928,6.112 3.634,6.045 4.297,5.909 4.966,5.773 5.545,5.537 6.042,5.207 6.54,4.876 6.93,4.428 7.224,3.863 7.516,3.298 7.661,2.589 7.661,1.732 7.661,0.89 7.525,0.187 7.253,-0.387 6.982,-0.956 6.607,-1.413 6.133,-1.751 5.655,-2.09 5.097,-2.331 4.442,-2.473 3.79,-2.614 3.084,-2.688 2.323,-2.688 H 0 v -5.624 h -3.179 z" style="fill:#242b57;fill-opacity:1;fill-rule:nonzero;stroke:none" id="path68"></path></g><g id="g70" transform="translate(409.3691,118.2803)"><path d="m 0,0 c -0.229,0 -0.521,-0.013 -0.863,-0.031 -0.351,-0.02 -0.681,-0.079 -0.999,-0.174 -0.322,-0.096 -0.592,-0.239 -0.817,-0.43 -0.224,-0.19 -0.339,-0.452 -0.339,-0.795 0,-0.364 0.162,-0.635 0.471,-0.812 0.313,-0.179 0.639,-0.268 0.977,-0.268 0.3,0 0.59,0.043 0.868,0.125 0.277,0.082 0.524,0.197 0.745,0.348 0.215,0.145 0.389,0.336 0.519,0.569 0.127,0.229 0.192,0.503 0.192,0.815 l 0,0.653 z m 0.754,-3.098 h -0.04 c -0.339,-0.531 -0.792,-0.91 -1.355,-1.142 -0.565,-0.232 -1.16,-0.343 -1.784,-0.343 -0.461,0 -0.906,0.062 -1.334,0.19 -0.428,0.128 -0.803,0.326 -1.129,0.582 -0.328,0.258 -0.584,0.578 -0.774,0.958 -0.191,0.379 -0.286,0.822 -0.286,1.326 0,0.566 0.105,1.048 0.314,1.443 0.213,0.396 0.496,0.72 0.856,0.978 0.36,0.258 0.77,0.461 1.232,0.603 0.464,0.142 0.942,0.247 1.435,0.315 0.499,0.068 0.995,0.106 1.489,0.123 0.495,0.012 0.953,0.018 1.376,0.018 0,0.545 -0.192,0.977 -0.579,1.293 -0.39,0.32 -0.848,0.479 -1.376,0.479 -0.505,0 -0.961,-0.106 -1.376,-0.313 C -2.992,3.2 -3.36,2.912 -3.688,2.545 l -1.629,1.672 c 0.573,0.528 1.233,0.926 1.998,1.192 0.758,0.263 1.546,0.395 2.363,0.395 0.895,0 1.634,-0.112 2.209,-0.335 C 1.831,5.244 2.295,4.916 2.64,4.48 2.984,4.047 3.226,3.514 3.361,2.883 3.496,2.252 3.569,1.52 3.569,0.69 V -4.342 H 0.754 Z" style="fill:#242b57;fill-opacity:1;fill-rule:nonzero;stroke:none" id="path72"></path></g><g id="g74" transform="translate(420.5547,112.3291)"><path d="m 0,0 c -0.205,-0.528 -0.4,-0.996 -0.592,-1.404 -0.19,-0.408 -0.431,-0.752 -0.723,-1.03 -0.292,-0.277 -0.663,-0.49 -1.111,-0.632 -0.446,-0.142 -1.039,-0.214 -1.771,-0.214 -0.787,0 -1.549,0.123 -2.282,0.368 l 0.407,2.507 c 0.464,-0.206 0.937,-0.308 1.426,-0.308 0.339,0 0.619,0.036 0.833,0.112 0.219,0.075 0.401,0.182 0.542,0.326 0.144,0.144 0.263,0.318 0.357,0.521 0.093,0.202 0.196,0.44 0.306,0.711 l 0.222,0.571 -4.339,9.986 h 3.302 l 2.546,-6.542 h 0.04 l 2.181,6.542 h 3.135 z" style="fill:#242b57;fill-opacity:1;fill-rule:nonzero;stroke:none" id="path76"></path></g><g id="g78" transform="translate(426.1768,123.8428)"><path d="m 0,0 h 2.934 v -1.346 h 0.043 c 0.093,0.191 0.227,0.381 0.405,0.572 0.179,0.187 0.386,0.359 0.631,0.506 0.245,0.149 0.525,0.272 0.834,0.37 0.315,0.092 0.656,0.141 1.022,0.141 0.692,0 1.306,-0.141 1.843,-0.43 0.538,-0.284 0.939,-0.733 1.213,-1.341 0.348,0.634 0.781,1.091 1.283,1.362 0.501,0.271 1.123,0.409 1.851,0.409 0.669,0 1.227,-0.113 1.684,-0.337 0.453,-0.224 0.816,-0.528 1.08,-0.916 0.265,-0.387 0.453,-0.843 0.572,-1.365 0.113,-0.525 0.173,-1.084 0.173,-1.681 v -5.848 h -3.06 v 5.763 c 0,0.462 -0.097,0.862 -0.292,1.195 -0.199,0.334 -0.549,0.5 -1.05,0.5 -0.355,0 -0.647,-0.061 -0.887,-0.174 C 10.04,-2.737 9.852,-2.896 9.706,-3.099 9.565,-3.302 9.464,-3.541 9.403,-3.812 9.341,-4.085 9.311,-4.369 9.311,-4.669 V -9.904 H 6.256 v 5.235 c 0,0.178 -0.008,0.396 -0.021,0.652 -0.013,0.258 -0.059,0.503 -0.139,0.734 -0.085,0.231 -0.217,0.429 -0.401,0.59 -0.184,0.166 -0.453,0.247 -0.803,0.247 -0.397,0 -0.713,-0.073 -0.96,-0.215 C 3.687,-2.803 3.5,-2.993 3.374,-3.23 3.242,-3.47 3.157,-3.737 3.115,-4.034 3.078,-4.335 3.056,-4.647 3.056,-4.974 v -4.93 H 0 Z" style="fill:#242b57;fill-opacity:1;fill-rule:nonzero;stroke:none" id="path80"></path></g><g id="g82" transform="translate(450.6865,120.0117)"><path d="M 0,0 C 0.015,0.514 -0.157,0.957 -0.511,1.322 -0.861,1.688 -1.314,1.873 -1.874,1.873 -2.213,1.873 -2.513,1.82 -2.771,1.71 -3.029,1.6 -3.249,1.46 -3.433,1.291 -3.615,1.121 -3.757,0.927 -3.86,0.7 -3.962,0.479 -4.019,0.244 -4.034,0 Z M 2.588,-4.362 C 2.099,-4.986 1.483,-5.469 0.733,-5.81 -0.014,-6.148 -0.788,-6.314 -1.59,-6.314 c -0.761,0 -1.477,0.118 -2.15,0.363 -0.671,0.245 -1.257,0.595 -1.75,1.05 -0.498,0.455 -0.887,1.001 -1.173,1.64 -0.283,0.641 -0.426,1.353 -0.426,2.139 0,0.788 0.143,1.499 0.426,2.138 0.286,0.638 0.675,1.185 1.173,1.642 0.493,0.453 1.079,0.804 1.75,1.05 0.673,0.243 1.389,0.364 2.15,0.364 0.707,0 1.348,-0.121 1.926,-0.364 C 0.914,3.462 1.402,3.111 1.802,2.658 2.203,2.201 2.512,1.654 2.729,1.016 2.947,0.377 3.053,-0.334 3.053,-1.122 v -0.956 h -7.087 c 0.121,-0.586 0.387,-1.05 0.796,-1.397 0.403,-0.346 0.908,-0.518 1.504,-0.518 0.505,0 0.929,0.111 1.274,0.336 0.347,0.224 0.65,0.512 0.908,0.863 z" style="fill:#242b57;fill-opacity:1;fill-rule:nonzero;stroke:none" id="path84"></path></g><g id="g86" transform="translate(455.5957,123.8428)"><path d="m 0,0 h 2.936 v -1.346 h 0.037 c 0.095,0.191 0.233,0.381 0.411,0.572 0.173,0.187 0.386,0.359 0.631,0.506 0.243,0.149 0.52,0.272 0.834,0.37 0.313,0.092 0.651,0.141 1.02,0.141 0.77,0 1.401,-0.121 1.87,-0.358 0.479,-0.238 0.847,-0.568 1.114,-0.988 0.264,-0.421 0.444,-0.916 0.539,-1.488 0.095,-0.571 0.141,-1.189 0.141,-1.851 V -9.904 H 6.479 v 4.849 c 0,0.284 -0.014,0.582 -0.031,0.886 -0.021,0.304 -0.081,0.588 -0.181,0.846 -0.104,0.259 -0.263,0.469 -0.471,0.63 -0.211,0.166 -0.511,0.247 -0.907,0.247 -0.396,0 -0.714,-0.073 -0.959,-0.215 C 3.687,-2.803 3.498,-2.993 3.372,-3.23 3.242,-3.47 3.157,-3.737 3.117,-4.034 3.076,-4.335 3.056,-4.647 3.056,-4.974 v -4.93 H 0 Z" style="fill:#242b57;fill-opacity:1;fill-rule:nonzero;stroke:none" id="path88"></path></g><g id="g90" transform="translate(474.0332,121.3965)"><path d="m 0,0 h -2.69 v -3.302 c 0,-0.271 0.017,-0.52 0.042,-0.743 0.026,-0.223 0.085,-0.417 0.182,-0.582 0.093,-0.161 0.241,-0.288 0.441,-0.377 0.194,-0.089 0.457,-0.131 0.783,-0.131 0.162,0 0.376,0.018 0.642,0.051 0.263,0.034 0.466,0.112 0.6,0.234 v -2.547 c -0.34,-0.122 -0.692,-0.206 -1.059,-0.244 -0.368,-0.04 -0.728,-0.058 -1.081,-0.058 -0.516,0 -0.991,0.053 -1.426,0.16 -0.436,0.11 -0.813,0.279 -1.139,0.518 -0.326,0.24 -0.58,0.548 -0.762,0.929 -0.186,0.377 -0.279,0.843 -0.279,1.385 V 0 h -1.956 v 2.444 h 1.956 V 5.379 H -2.69 V 2.444 H 0 Z" style="fill:#242b57;fill-opacity:1;fill-rule:nonzero;stroke:none" id="path92"></path></g><g id="g94" transform="translate(481.1836,120.9287)"><path d="m 0,0 c -0.448,0.556 -1.037,0.833 -1.769,0.833 -0.263,0 -0.512,-0.062 -0.755,-0.183 -0.244,-0.124 -0.37,-0.336 -0.37,-0.631 0,-0.247 0.126,-0.424 0.377,-0.54 0.253,-0.114 0.574,-0.218 0.959,-0.306 0.387,-0.09 0.8,-0.183 1.241,-0.284 C 0.128,-1.214 0.54,-1.374 0.927,-1.59 1.312,-1.808 1.634,-2.102 1.886,-2.479 2.134,-2.852 2.263,-3.351 2.263,-3.973 2.263,-4.612 2.12,-5.14 1.846,-5.552 1.566,-5.967 1.211,-6.301 0.774,-6.551 0.339,-6.804 -0.147,-6.978 -0.69,-7.084 c -0.546,-0.097 -1.079,-0.147 -1.612,-0.147 -0.693,0 -1.39,0.096 -2.097,0.294 -0.705,0.194 -1.304,0.545 -1.792,1.047 l 1.852,2.057 c 0.284,-0.352 0.602,-0.622 0.948,-0.805 0.345,-0.181 0.75,-0.275 1.211,-0.275 0.352,0 0.673,0.051 0.96,0.154 0.284,0.105 0.426,0.286 0.426,0.562 0,0.256 -0.124,0.448 -0.377,0.58 -0.251,0.131 -0.573,0.236 -0.958,0.326 -0.388,0.089 -0.8,0.182 -1.245,0.283 -0.439,0.102 -0.854,0.254 -1.24,0.458 -0.389,0.204 -0.706,0.494 -0.958,0.867 -0.252,0.372 -0.376,0.874 -0.376,1.498 0,0.584 0.12,1.088 0.357,1.506 0.237,0.422 0.551,0.769 0.94,1.04 0.385,0.271 0.825,0.472 1.332,0.604 0.503,0.126 1.012,0.192 1.527,0.192 0.653,0 1.31,-0.095 1.977,-0.286 0.667,-0.19 1.224,-0.528 1.69,-1.019 z" style="fill:#242b57;fill-opacity:1;fill-rule:nonzero;stroke:none" id="path96"></path></g><g id="g98" transform="translate(328.332,219.189)"><path d="M 0,0 H 39.762 V -12.051 H 13.057 V -24.104 H 37.751 V -36.16 H 13.057 V -59.262 H 0 Z" style="fill:#242b57;fill-opacity:1;fill-rule:nonzero;stroke:none" id="path100"></path></g><g id="g102" transform="translate(390.5234,194.0781)"><path d="m 0,0 h 8.709 c 1.169,0 2.298,0.11 3.387,0.334 1.09,0.224 2.064,0.601 2.932,1.13 0.862,0.529 1.558,1.257 2.091,2.176 0.529,0.922 0.796,2.078 0.796,3.474 0,1.51 -0.352,2.722 -1.05,3.64 -0.696,0.924 -1.588,1.635 -2.677,2.138 -1.087,0.5 -2.299,0.821 -3.641,0.962 -1.338,0.138 -2.624,0.209 -3.849,0.209 H 0 Z M -13.057,25.111 H 8.956 c 3.069,0 5.973,-0.278 8.705,-0.834 2.735,-0.561 5.121,-1.523 7.159,-2.89 2.038,-1.367 3.653,-3.208 4.853,-5.524 1.2,-2.315 1.799,-5.231 1.799,-8.749 0,-3.46 -0.555,-6.362 -1.672,-8.704 -1.116,-2.343 -2.654,-4.214 -4.605,-5.61 -1.951,-1.393 -4.271,-2.383 -6.945,-2.971 -2.68,-0.584 -5.581,-0.878 -8.707,-0.878 H 0 v -23.102 h -13.057 z" style="fill:#242b57;fill-opacity:1;fill-rule:nonzero;stroke:none" id="path104"></path></g><g id="g106" transform="translate(444.9316,190.8989)"><path d="M 0,0 -19.588,28.29 H -3.183 L 9.456,7.535 21.595,28.29 H 37.416 L 18.247,0.25 39.676,-30.974 H 23.268 L 8.791,-7.115 -5.273,-30.974 h -15.486 z" style="fill:#242b57;fill-opacity:1;fill-rule:nonzero;stroke:none" id="path108"></path></g><g id="g110" transform="translate(271.144,171.0459)"><path d="m 0,0 -8.265,11.189 c -1.227,1.664 -3.346,3.856 -3.346,6.053 0,2.192 2.108,4.384 3.346,6.054 L 0,34.496 c 0.395,0.539 0.771,0.916 1.14,1.221 v 12.888 c 0,10.353 -4.332,12.964 -9.624,5.798 L -26.307,30.276 c -2.648,-3.588 -7.19,-8.307 -7.19,-13.034 0,-4.72 4.554,-9.442 7.19,-13.052 l 17.823,-24.098 c 5.292,-7.172 9.624,-4.584 9.624,5.79 V -1.227 C 0.771,-0.929 0.395,-0.548 0,0" style="fill:#0286c8;fill-opacity:1;fill-rule:nonzero;stroke:none" id="path112"></path></g><g id="g114" transform="translate(306.1582,201.3237)"><path d="m 0,0 -17.829,24.125 c -5.29,7.17 -9.62,4.558 -9.62,-5.798 V 5.439 c 0.358,-0.296 0.739,-0.682 1.13,-1.221 l 8.278,-11.199 c 1.232,-1.67 3.343,-3.863 3.343,-6.055 0,-2.193 -2.111,-4.389 -3.343,-6.055 l -8.278,-11.187 c -0.391,-0.554 -0.772,-0.929 -1.13,-1.234 v -12.884 c 0,-10.378 4.33,-12.956 9.62,-5.79 L 0,-26.085 c 2.647,3.61 7.188,8.338 7.188,13.055 C 7.188,-8.309 2.647,-3.589 0,0" style="fill:#242b57;fill-opacity:1;fill-rule:nonzero;stroke:none" id="path116"></path></g></g></g></g></svg>